<?xml version="1.0" encoding="utf-8"?>
<!-- Generator: Adobe Illustrator 16.0.0, SVG Export Plug-In . SVG Version: 6.00 Build 0)  -->
<!DOCTYPE svg PUBLIC "-//W3C//DTD SVG 1.1//EN" "http://www.w3.org/Graphics/SVG/1.1/DTD/svg11.dtd">
<svg version="1.1" xmlns="http://www.w3.org/2000/svg" xmlns:xlink="http://www.w3.org/1999/xlink" x="0px" y="0px"
	 width="2111.918px" height="568.545px" viewBox="0 0 2111.918 568.545" enable-background="new 0 0 2111.918 568.545"
	 xml:space="preserve">
<g id="Logo_1_">
	<g>
		<path fill="#333333" d="M651.018,235.409c-6.72,0-15.68-0.56-22.68-0.84v68.04c0,3.08-2.521,5.6-5.601,5.6h-36.119
			c-3.08,0-5.601-2.24-5.601-5.32V114.729c0-9.52,3.92-12.04,12.601-13.439c14.279-2.24,36.68-3.64,56.84-3.64
			c42.279,0,83.999,14.84,83.999,67.479v2.52C734.457,220.01,692.737,235.409,651.018,235.409z M686.857,165.13
			c0-19.88-12.32-27.72-35.84-27.72c-3.92,0-19.32,0.56-22.68,0.84v57.119c3.08,0.28,19.6,0.561,22.68,0.561
			c24.92,0,35.84-9.24,35.84-28.28V165.13z"/>
		<path fill="#333333" d="M901.617,308.209h-39.2c-2.8,0-5.04-2.24-5.6-5.04l-10.08-45.92h-57.399l-10.08,45.92
			c-0.561,2.8-2.8,5.04-5.6,5.04h-39.2c-2.8,0-4.76-1.68-4.76-4.48c0-0.279,0.279-0.84,0.279-1.399l41.72-173.6
			c6.44-26.88,27.16-31.079,46.48-31.079c19.319,0,39.76,4.199,46.199,31.079l41.72,173.6c0,0.56,0.28,1.12,0.28,1.399
			C906.377,306.529,904.417,308.209,901.617,308.209z M821.817,141.609c-0.56-2.8-1.12-4.199-3.64-4.199
			c-2.521,0-3.36,1.399-3.92,4.199l-17.08,77.28h41.72L821.817,141.609z"/>
		<path fill="#333333" d="M1041.338,305.969c-5.88,1.96-22.12,4.76-41.72,4.76c-42.56,0-82.88-22.399-82.88-89.039v-35.28
			c0-66.64,40.32-88.759,82.88-88.759c19.6,0,35.84,2.8,41.72,4.76c3.92,1.12,6.16,2.239,6.16,6.16v27.159
			c0,3.36-1.681,5.601-5.32,5.601c-0.28,0-0.56,0-0.84,0c-10.64-0.841-26.04-2.24-41.439-2.24c-19.32,0-34.721,10.08-34.721,47.319
			v35.28c0,37.24,15.4,47.319,34.721,47.319c15.399,0,30.8-1.399,41.439-2.239c0.28,0,0.56,0,0.84,0c3.64,0,5.32,2.239,5.32,5.6
			v27.16C1047.498,303.449,1045.258,304.849,1041.338,305.969z"/>
		<path fill="#333333" d="M1131.215,310.729c-22.12,0-38.64-2.52-52.92-6.159c-2.8-0.841-5.6-2.521-5.6-5.601v-27.439
			c0-3.92,2.24-5.32,5.04-5.32c0.28,0,0.56,0,0.84,0c11.48,1.12,42.28,3.36,53.2,3.36c19.319,0,24.92-6.16,24.92-19.601
			c0-8.119-3.92-12.6-18.48-21.279l-38.64-22.96c-26.04-15.4-33.04-33.04-33.04-53.479c0-30.8,17.36-54.6,71.68-54.6
			c20.44,0,48.72,3.359,59.36,6.159c2.239,0.561,4.199,1.96,4.199,5.04v28.28c0,2.52-1.12,4.76-4.76,4.76c0,0-0.28,0-0.56,0
			c-7.84-0.56-40.32-3.08-59.36-3.08c-15.96,0-21.84,4.76-21.84,14.84c0,7.84,3.641,11.48,18.76,19.601l35.84,19.319
			c29.12,15.68,37.8,34.16,37.8,56.84C1207.654,279.089,1188.055,310.729,1131.215,310.729z"/>
		<path fill="#333333" d="M1435.293,139.649h-45.36v162.96c0,3.08-2.52,5.6-5.6,5.6h-36.68c-3.08,0-5.601-2.52-5.601-5.6v-162.96
			h-45.64c-3.08,0-5.6-2.239-5.6-5.319v-28.84c0-3.08,2.52-5.32,5.6-5.32h138.88c3.08,0,5.88,2.24,5.88,5.32v28.84
			C1441.173,137.41,1438.373,139.649,1435.293,139.649z"/>
		<path fill="#333333" d="M1533.291,310.729c-46.2,0-82.88-24.92-82.88-89.879v-33.32c0-64.96,36.68-89.879,82.88-89.879
			c46.199,0,82.88,24.919,82.88,89.879v33.32C1616.171,285.809,1579.49,310.729,1533.291,310.729z M1568.011,187.529
			c0-33.6-11.2-47.88-34.72-47.88c-23.521,0-34.44,14.28-34.44,47.88v33.32c0,33.6,10.92,47.88,34.44,47.88
			c23.52,0,34.72-14.28,34.72-47.88V187.529z"/>
		<path fill="#333333" d="M1724.53,310.729c-46.2,0-82.88-24.92-82.88-89.879v-33.32c0-64.96,36.68-89.879,82.88-89.879
			c46.199,0,82.88,24.919,82.88,89.879v33.32C1807.41,285.809,1770.729,310.729,1724.53,310.729z M1759.25,187.529
			c0-33.6-11.2-47.88-34.72-47.88c-23.521,0-34.44,14.28-34.44,47.88v33.32c0,33.6,10.92,47.88,34.44,47.88
			c23.52,0,34.72-14.28,34.72-47.88V187.529z"/>
		<path fill="#333333" d="M1951.609,307.089c-9.24,1.96-30.8,3.64-45.64,3.64c-36.12,0-68.32-9.239-68.32-60.199V105.77
			c0-3.08,2.521-5.6,5.601-5.6h36.68c3.08,0,5.6,2.52,5.6,5.6v144.76c0,14.56,4.76,19.04,17.92,19.04h48.16c3.08,0,5.6,2.52,5.6,5.6
			v26.04C1957.209,304.849,1955.529,306.249,1951.609,307.089z"/>
		<path fill="#333333" d="M2033.652,310.729c-22.12,0-38.64-2.52-52.92-6.159c-2.8-0.841-5.6-2.521-5.6-5.601v-27.439
			c0-3.92,2.24-5.32,5.04-5.32c0.28,0,0.56,0,0.84,0c11.48,1.12,42.28,3.36,53.2,3.36c19.319,0,24.92-6.16,24.92-19.601
			c0-8.119-3.92-12.6-18.48-21.279l-38.64-22.96c-26.04-15.4-33.04-33.04-33.04-53.479c0-30.8,17.36-54.6,71.68-54.6
			c20.44,0,48.72,3.359,59.36,6.159c2.239,0.561,4.199,1.96,4.199,5.04v28.28c0,2.52-1.12,4.76-4.76,4.76c0,0-0.28,0-0.56,0
			c-7.84-0.56-40.32-3.08-59.36-3.08c-15.96,0-21.84,4.76-21.84,14.84c0,7.84,3.641,11.48,18.76,19.601l35.84,19.319
			c29.12,15.68,37.8,34.16,37.8,56.84C2110.092,279.089,2090.492,310.729,2033.652,310.729z"/>
	</g>
	<g>
		<path fill="#6184C9" d="M610.309,419.785c-3.38,0-8.581-0.39-11.57-0.52v33.932c0,1.43-1.04,2.6-2.47,2.6h-13
			c-1.43,0-2.6-1.17-2.6-2.6v-89.444c0-2.6,1.56-3.51,4.16-3.9c6.76-1.04,15.991-1.69,25.481-1.69
			c20.021,0,37.441,7.021,37.441,30.031v1.17C647.75,412.375,630.33,419.785,610.309,419.785z M629.81,388.194
			c0-10.921-6.5-15.081-19.5-15.081c-2.73,0-9.23,0.261-11.57,0.521v30.941c2.08,0.13,9.36,0.39,11.57,0.39
			c14.041,0,19.5-5.2,19.5-15.601V388.194z"/>
		<path fill="#6184C9" d="M714.701,425.115h-42.382v0.391c0,7.54,3.12,16.511,15.601,16.511c9.49,0,18.461-0.78,23.921-1.3
			c0.13,0,0.26,0,0.39,0c1.3,0,2.34,0.649,2.34,1.949v8.581c0,2.08-0.39,2.989-2.73,3.38c-8.45,1.56-13.521,2.21-25.221,2.21
			c-13.001,0-31.461-7.021-31.461-32.631v-9.621c0-20.28,11.311-33.021,31.201-33.021c20.021,0,30.941,13.65,30.941,33.021v7.28
			C717.3,423.945,716.521,425.115,714.701,425.115z M700.01,412.375c0-10.141-5.59-15.99-13.65-15.99s-13.911,5.72-13.911,15.99
			v0.521h27.561V412.375z"/>
		<path fill="#6184C9" d="M765.139,396.125c-7.021,0-12.48,1.819-17.941,4.68v52.262c0,1.431-1.17,2.73-2.6,2.73h-11.96
			c-1.43,0-2.6-1.3-2.6-2.73v-67.992c0-1.43,1.17-2.6,2.6-2.6h11.311c1.43,0,2.6,1.17,2.6,2.6v2.73
			c6.37-4.94,13.391-6.24,18.591-6.24c1.43,0,2.6,1.17,2.6,2.6v9.36C767.739,394.955,766.569,396.125,765.139,396.125z"/>
		<path fill="#6184C9" d="M815.188,368.304h-5.85c-6.24,0-7.67,1.43-7.67,7.8v6.371h12.48c1.43,0,2.6,1.17,2.6,2.6v7.801
			c0,1.43-1.17,2.47-2.6,2.47h-12.48v57.722c0,1.431-1.17,2.73-2.6,2.73h-11.831c-1.43,0-2.73-1.3-2.73-2.73v-57.722l-11.57-1.82
			c-1.43-0.26-2.6-1.04-2.6-2.47v-5.98c0-1.43,1.17-2.6,2.6-2.6h11.57v-6.371c0-16.771,8.97-20.8,22.491-20.8
			c3.12,0,5.331,0.52,7.8,1.04c1.04,0.26,2.34,0.91,2.34,2.08v7.67C817.139,367.653,816.099,368.304,815.188,368.304z"/>
		<path fill="#6184C9" d="M851.847,456.837c-20.41,0-31.071-13.78-31.071-32.371v-10.53c0-18.591,10.661-32.371,31.071-32.371
			c20.411,0,31.071,13.78,31.071,32.371v10.53C882.918,443.057,872.258,456.837,851.847,456.837z M865.758,413.936
			c0-10.66-4.811-17.551-13.911-17.551c-9.1,0-13.91,6.891-13.91,17.551v10.53c0,10.66,4.811,17.551,13.91,17.551
			c9.101,0,13.911-6.891,13.911-17.551V413.936z"/>
		<path fill="#6184C9" d="M930.756,396.125c-7.021,0-12.48,1.819-17.94,4.68v52.262c0,1.431-1.171,2.73-2.601,2.73h-11.96
			c-1.431,0-2.601-1.3-2.601-2.73v-67.992c0-1.43,1.17-2.6,2.601-2.6h11.31c1.431,0,2.601,1.17,2.601,2.6v2.73
			c6.37-4.94,13.391-6.24,18.591-6.24c1.43,0,2.6,1.17,2.6,2.6v9.36C933.356,394.955,932.186,396.125,930.756,396.125z"/>
		<path fill="#6184C9" d="M1033.199,455.797h-11.96c-1.43,0-2.601-1.3-2.601-2.73v-44.201c0-10.011-2.08-12.61-9.36-12.61
			c-2.47,0-7.41,0.78-12.09,3.25c0.39,2.86,0.52,6.11,0.52,9.36v44.201c0,1.431-1.17,2.73-2.6,2.73h-11.961
			c-1.43,0-2.6-1.3-2.6-2.73v-44.201c0-10.011-1.69-12.61-8.971-12.61c-2.73,0-6.63,1.43-11.96,4.29v52.521
			c0,1.431-1.171,2.73-2.601,2.73h-11.96c-1.431,0-2.601-1.3-2.601-2.73v-67.992c0-1.43,1.17-2.6,2.601-2.6h11.31
			c1.431,0,2.601,1.17,2.601,2.6v2.73c5.46-3.511,10.921-6.24,18.591-6.24c7.41,0,12.221,2.21,15.211,5.85
			c6.63-3.64,12.48-5.85,21.45-5.85c17.681,0,21.581,12.09,21.581,27.301v44.201
			C1035.799,454.497,1034.629,455.797,1033.199,455.797z"/>
		<path fill="#6184C9" d="M1102.486,455.797h-11.051c-1.43,0-2.6-1.17-2.6-2.6v-2.08c-5.98,3.64-12.092,5.72-18.332,5.72
			c-10.79,0-22.49-4.16-22.49-21.711v-0.52c0-14.821,9.1-22.491,31.72-22.491h8.191v-5.721c0-8.45-3.771-10.53-11.441-10.53
			c-8.32,0-16.9,0.521-21.191,1.04c-0.26,0-0.52,0-0.649,0c-1.3,0-2.34-0.39-2.34-2.21v-8.32c0-1.43,0.779-2.34,2.47-2.729
			c5.2-1.04,12.74-2.08,21.71-2.08c18.461,0,28.602,8.189,28.602,24.83v46.803C1105.086,454.627,1103.916,455.797,1102.486,455.797z
			 M1087.926,423.556h-8.191c-11.83,0-14.43,3.771-14.43,11.051v0.52c0,6.37,2.86,8.061,9.36,8.061c4.682,0,9.49-1.561,13.262-3.641
			V423.556z"/>
		<path fill="#6184C9" d="M1177.494,455.797h-11.959c-1.432,0-2.602-1.3-2.602-2.73v-42.381c0-11.311-1.039-14.561-11.049-14.561
			c-4.422,0-9.23,1.819-14.691,4.68v52.262c0,1.431-1.17,2.73-2.6,2.73h-11.961c-1.43,0-2.6-1.3-2.6-2.73v-67.992
			c0-1.43,1.17-2.6,2.6-2.6h11.311c1.43,0,2.6,1.17,2.6,2.6v2.73c7.541-4.811,12.48-6.24,21.061-6.24
			c18.721,0,22.492,12.61,22.492,29.121v42.381C1180.096,454.497,1178.926,455.797,1177.494,455.797z"/>
		<path fill="#6184C9" d="M1238.854,455.146c-2.99,0.78-8.84,1.69-16.77,1.69c-16.9,0-29.641-10.4-29.641-31.591v-12.091
			c0-21.19,12.74-31.591,29.641-31.591c7.93,0,13.779,0.91,16.77,1.689c2.211,0.521,2.73,1.301,2.73,3.381v8.45
			c0,1.3-1.039,1.95-2.34,1.95c-0.131,0-0.26,0-0.391,0c-5.199-0.65-8.32-0.91-16.77-0.91c-6.111,0-12.48,3.51-12.48,17.03v12.091
			c0,13.521,6.369,17.03,12.48,17.03c8.449,0,11.57-0.26,16.77-0.91c0.131,0,0.26,0,0.391,0c1.301,0,2.34,0.65,2.34,1.95v8.45
			C1241.584,453.847,1241.064,454.627,1238.854,455.146z"/>
		<path fill="#6184C9" d="M1309.313,425.115h-42.383v0.391c0,7.54,3.121,16.511,15.602,16.511c9.49,0,18.461-0.78,23.92-1.3
			c0.131,0,0.262,0,0.391,0c1.301,0,2.34,0.649,2.34,1.949v8.581c0,2.08-0.389,2.989-2.73,3.38c-8.449,1.56-13.52,2.21-25.221,2.21
			c-13,0-31.461-7.021-31.461-32.631v-9.621c0-20.28,11.311-33.021,31.201-33.021c20.021,0,30.941,13.65,30.941,33.021v7.28
			C1311.912,423.945,1311.133,425.115,1309.313,425.115z M1294.621,412.375c0-10.141-5.59-15.99-13.65-15.99
			s-13.91,5.72-13.91,15.99v0.521h27.561V412.375z"/>
		<path fill="#6184C9" d="M1437.752,455.797h-13.131c-1.17,0-2.08-1.3-2.08-2.6v-60.453c0-0.91-0.129-1.3-0.391-1.3
			c-0.129,0-0.389,0.39-0.648,0.78l-12.48,24.831c-0.781,1.43-2.471,2.21-4.16,2.21h-13.131c-1.689,0-3.381-0.78-4.16-2.21
			l-12.611-24.831c-0.26-0.391-0.52-0.78-0.65-0.78c-0.26,0-0.389,0.39-0.389,1.3v60.453c0,1.3-0.91,2.6-2.08,2.6h-13.131
			c-1.17,0-2.211-0.65-2.211-1.95v-89.443c0-2.86,2.342-5.2,5.201-5.2h10.66c2.08,0,3.9,1.3,4.811,3.12l19.631,39.781
			c0.65,1.171,0.91,1.82,1.43,1.82s0.779-0.649,1.43-1.82l19.631-39.781c0.91-1.82,2.73-3.12,4.811-3.12h10.66
			c2.859,0,5.201,2.34,5.201,5.2v89.443C1439.963,455.146,1438.922,455.797,1437.752,455.797z"/>
		<path fill="#6184C9" d="M1507.951,455.797H1496.9c-1.43,0-2.6-1.17-2.6-2.6v-2.08c-5.98,3.64-12.092,5.72-18.332,5.72
			c-10.789,0-22.49-4.16-22.49-21.711v-0.52c0-14.821,9.1-22.491,31.721-22.491h8.191v-5.721c0-8.45-3.771-10.53-11.441-10.53
			c-8.32,0-16.9,0.521-21.191,1.04c-0.26,0-0.52,0-0.648,0c-1.301,0-2.34-0.39-2.34-2.21v-8.32c0-1.43,0.779-2.34,2.469-2.729
			c5.201-1.04,12.74-2.08,21.711-2.08c18.461,0,28.602,8.189,28.602,24.83v46.803
			C1510.551,454.627,1509.381,455.797,1507.951,455.797z M1493.391,423.556h-8.191c-11.83,0-14.43,3.771-14.43,11.051v0.52
			c0,6.37,2.859,8.061,9.359,8.061c4.682,0,9.49-1.561,13.262-3.641V423.556z"/>
		<path fill="#6184C9" d="M1582.959,455.797h-11.961c-1.43,0-2.6-1.3-2.6-2.73v-42.381c0-11.311-1.041-14.561-11.051-14.561
			c-4.42,0-9.23,1.819-14.689,4.68v52.262c0,1.431-1.172,2.73-2.602,2.73h-11.959c-1.432,0-2.602-1.3-2.602-2.73v-67.992
			c0-1.43,1.17-2.6,2.602-2.6h11.309c1.432,0,2.602,1.17,2.602,2.6v2.73c7.539-4.811,12.48-6.24,21.061-6.24
			c18.721,0,22.49,12.61,22.49,29.121v42.381C1585.559,454.497,1584.389,455.797,1582.959,455.797z"/>
		<path fill="#6184C9" d="M1652.248,455.797h-11.051c-1.43,0-2.6-1.17-2.6-2.6v-2.08c-5.98,3.64-12.09,5.72-18.33,5.72
			c-10.791,0-22.492-4.16-22.492-21.711v-0.52c0-14.821,9.102-22.491,31.723-22.491h8.189v-5.721c0-8.45-3.77-10.53-11.439-10.53
			c-8.32,0-16.9,0.521-21.191,1.04c-0.26,0-0.52,0-0.65,0c-1.299,0-2.34-0.39-2.34-2.21v-8.32c0-1.43,0.779-2.34,2.471-2.729
			c5.199-1.04,12.74-2.08,21.711-2.08c18.461,0,28.6,8.189,28.6,24.83v46.803C1654.848,454.627,1653.678,455.797,1652.248,455.797z
			 M1637.688,423.556h-8.189c-11.83,0-14.432,3.771-14.432,11.051v0.52c0,6.37,2.861,8.061,9.361,8.061
			c4.68,0,9.49-1.561,13.26-3.641V423.556z"/>
		<path fill="#6184C9" d="M1731.547,394.305l-4.291,1.689c2.08,2.99,3.25,5.851,3.25,10.4v0.91c0,16.251-11.18,23.661-30.811,23.661
			c-6.891,0-11.57-1.17-14.17-2.21c-1.561,1.04-2.211,2.21-2.211,3.38c0,2.601,1.43,3.641,4.42,4.29l15.342,3.641
			c17.68,4.16,29.121,6.891,29.121,20.801v0.91c0,13.26-9.75,20.41-31.852,20.41c-21.061,0-32.242-7.93-32.242-21.58v-1.17
			c0-5.331,2.471-10.531,6.631-14.301c-3.641-2.73-5.85-7.28-5.85-11.961v-0.13c0-4.03,1.689-8.061,5.199-10.53
			c-3.9-4.03-5.33-8.71-5.33-15.211v-0.91c0-13,8.451-23.92,30.941-23.92h30.422c1.949,0,3.51,1.56,3.51,3.51v5.46
			C1733.627,393.395,1733.107,393.654,1731.547,394.305z M1715.037,460.867c0-2.86-1.691-4.551-15.342-7.801l-11.57-2.729
			c-1.949,2.729-3.25,4.42-3.25,9.101v1.17c0,5.33,3.25,8.58,15.471,8.58c12.48,0,14.691-2.73,14.691-7.41V460.867z
			 M1713.605,406.655c0-6.24-2.729-11.051-13.91-11.051c-11.051,0-14.041,4.94-14.041,11.051v1.04
			c0,4.81,1.951,10.271,14.041,10.271c10.791,0,13.91-3.771,13.91-10.271V406.655z"/>
		<path fill="#6184C9" d="M1801.096,425.115h-42.381v0.391c0,7.54,3.119,16.511,15.6,16.511c9.492,0,18.461-0.78,23.922-1.3
			c0.131,0,0.26,0,0.391,0c1.299,0,2.34,0.649,2.34,1.949v8.581c0,2.08-0.391,2.989-2.73,3.38c-8.451,1.56-13.521,2.21-25.221,2.21
			c-13,0-31.461-7.021-31.461-32.631v-9.621c0-20.28,11.311-33.021,31.201-33.021c20.02,0,30.941,13.65,30.941,33.021v7.28
			C1803.697,423.945,1802.916,425.115,1801.096,425.115z M1786.406,412.375c0-10.141-5.59-15.99-13.65-15.99
			s-13.91,5.72-13.91,15.99v0.521h27.561V412.375z"/>
		<path fill="#6184C9" d="M1907.176,455.797h-11.959c-1.432,0-2.602-1.3-2.602-2.73v-44.201c0-10.011-2.08-12.61-9.359-12.61
			c-2.471,0-7.41,0.78-12.09,3.25c0.389,2.86,0.52,6.11,0.52,9.36v44.201c0,1.431-1.17,2.73-2.6,2.73h-11.961
			c-1.43,0-2.6-1.3-2.6-2.73v-44.201c0-10.011-1.691-12.61-8.971-12.61c-2.73,0-6.631,1.43-11.961,4.29v52.521
			c0,1.431-1.17,2.73-2.6,2.73h-11.961c-1.43,0-2.6-1.3-2.6-2.73v-67.992c0-1.43,1.17-2.6,2.6-2.6h11.311c1.43,0,2.6,1.17,2.6,2.6
			v2.73c5.461-3.511,10.92-6.24,18.592-6.24c7.41,0,12.221,2.21,15.209,5.85c6.631-3.64,12.48-5.85,21.451-5.85
			c17.682,0,21.582,12.09,21.582,27.301v44.201C1909.777,454.497,1908.607,455.797,1907.176,455.797z"/>
		<path fill="#6184C9" d="M1982.055,425.115h-42.383v0.391c0,7.54,3.121,16.511,15.602,16.511c9.49,0,18.461-0.78,23.92-1.3
			c0.131,0,0.262,0,0.391,0c1.301,0,2.34,0.649,2.34,1.949v8.581c0,2.08-0.389,2.989-2.73,3.38c-8.449,1.56-13.52,2.21-25.221,2.21
			c-13,0-31.461-7.021-31.461-32.631v-9.621c0-20.28,11.311-33.021,31.201-33.021c20.021,0,30.941,13.65,30.941,33.021v7.28
			C1984.654,423.945,1983.875,425.115,1982.055,425.115z M1967.363,412.375c0-10.141-5.59-15.99-13.65-15.99
			s-13.91,5.72-13.91,15.99v0.521h27.561V412.375z"/>
		<path fill="#6184C9" d="M2054.854,455.797h-11.961c-1.43,0-2.6-1.3-2.6-2.73v-42.381c0-11.311-1.041-14.561-11.051-14.561
			c-4.42,0-9.23,1.819-14.689,4.68v52.262c0,1.431-1.172,2.73-2.602,2.73h-11.959c-1.432,0-2.602-1.3-2.602-2.73v-67.992
			c0-1.43,1.17-2.6,2.602-2.6h11.309c1.432,0,2.602,1.17,2.602,2.6v2.73c7.539-4.811,12.48-6.24,21.061-6.24
			c18.721,0,22.49,12.61,22.49,29.121v42.381C2057.453,454.497,2056.283,455.797,2054.854,455.797z"/>
		<path fill="#6184C9" d="M2108.283,455.927c-3.121,0.521-5.98,0.91-8.84,0.91c-14.691,0-20.672-3.25-20.672-20.671v-40.821
			l-12.221-1.82c-1.43-0.26-2.6-1.17-2.6-2.6v-5.851c0-1.43,1.17-2.6,2.6-2.6h12.221v-10.661c0-1.43,1.17-2.34,2.6-2.6l12.092-2.08
			c0.129,0,0.389,0,0.52,0c1.17,0,2.08,0.649,2.08,1.95v13.391h11.701c1.43,0,2.6,1.17,2.6,2.6v7.67c0,1.431-1.17,2.601-2.6,2.601
			h-11.701v40.821c0,6.5,0.391,7.28,5.07,7.28h6.891c1.689,0,2.729,0.65,2.729,1.95v8.19
			C2110.752,454.887,2109.973,455.667,2108.283,455.927z"/>
	</g>
	
		<text transform="matrix(1 0 0 1 570.9175 455.7969)" display="none" fill="#6184C9" font-family="'NeoSans-Medium'" font-size="130" letter-spacing="-1">Change Management</text>
	
		<text transform="matrix(1 0 0 1 570.9175 455.7969)" display="none" fill="#6184C9" font-family="'NeoSans-Medium'" font-size="130" letter-spacing="-1">Resourcing Solutions</text>
	<g id="PT">
		<linearGradient id="SVGID_1_" gradientUnits="userSpaceOnUse" x1="249.1362" y1="0" x2="249.1362" y2="568.5454">
			<stop  offset="0" style="stop-color:#9DC1E0"/>
			<stop  offset="1" style="stop-color:#6184C9"/>
		</linearGradient>
		<path fill="url(#SVGID_1_)" d="M187.818,208.755c5.5,0,10,4.5,10,10v289.786c0,5.5-3.152,13.211-7.006,17.136l-35.079,35.732
			c-3.854,3.925-11.506,7.136-17.006,7.136H60.813c-5.5,0-13.208-3.156-17.127-7.014L7.127,525.555
			C3.208,521.697,0,514.041,0,508.541V60.782c0-5.5,3.183-13.181,7.073-17.069L43.74,7.069C47.63,3.181,55.313,0,60.813,0h376.693
			c5.5,0,13.182,3.183,17.07,7.072l36.626,36.637c3.888,3.89,7.07,11.572,7.07,17.072v237.427c0,5.5-3.185,13.179-7.077,17.065
			l-36.611,36.547c-3.893,3.886-11.577,7.065-17.077,7.065H318.918c-5.5,0-10-4.5-10-10V218.755c0-5.5,4.5-10,10-10h40.688
			c5.5,0,13.216-3.147,17.147-6.994l15.769-15.433c3.931-3.847,7.147-11.494,7.147-16.994v-29.969c0-5.5-3.184-13.18-7.075-17.067
			l-15.913-15.896c-3.891-3.887-11.575-7.067-17.075-7.067H141.121c-5.5,0-13.147,3.216-16.995,7.147l-15.401,15.737
			c-3.847,3.931-6.995,11.647-6.995,17.147v29.969c0,5.5,3.18,13.184,7.067,17.075l15.256,15.271
			c3.887,3.891,11.567,7.075,17.067,7.075H187.818z"/>
	</g>
</g>
<g id="Shapes" display="none">
	<g id="PT_1_" display="inline">
		<linearGradient id="SVGID_2_" gradientUnits="userSpaceOnUse" x1="249.1362" y1="0" x2="249.1362" y2="568.5454">
			<stop  offset="0" style="stop-color:#9DC1E0"/>
			<stop  offset="1" style="stop-color:#6184C9"/>
		</linearGradient>
		<path fill="url(#SVGID_2_)" d="M60.813,568.545c-5.5,0-13.208-3.156-17.127-7.014L7.127,525.555
			C3.208,521.697,0,514.041,0,508.541V60.782c0-5.5,3.183-13.181,7.073-17.069L43.74,7.069C47.63,3.181,55.313,0,60.813,0h376.693
			c5.5,0,13.182,3.183,17.07,7.072l36.626,36.637c3.888,3.89,7.07,11.572,7.07,17.072v447.759c0,5.5-3.206,13.158-7.125,17.018
			l-36.517,35.969c-3.918,3.859-11.625,7.018-17.125,7.018H60.813z"/>
	</g>
	<g id="PT_3_" display="inline">
		<linearGradient id="SVGID_3_" gradientUnits="userSpaceOnUse" x1="820.5942" y1="41.3228" x2="820.5942" y2="540.8677">
			<stop  offset="0" style="stop-color:#9DC1E0"/>
			<stop  offset="1" style="stop-color:#6184C9"/>
		</linearGradient>
		<path fill="url(#SVGID_3_)" d="M632.271,540.867c-5.5,0-13.208-3.156-17.127-7.014l-36.559-35.977
			c-3.92-3.857-7.127-11.514-7.127-17.014V102.104c0-5.5,3.183-13.181,7.073-17.069l36.667-36.644
			c3.89-3.888,11.573-7.069,17.073-7.069h376.693c5.5,0,13.182,3.183,17.07,7.072l36.626,36.637c3.888,3.89,7.07,11.572,7.07,17.072
			v378.759c0,5.5-3.206,13.158-7.125,17.018l-36.517,35.969c-3.918,3.859-11.625,7.018-17.125,7.018H632.271z"/>
	</g>
</g>
<g id="Guides" display="none">
</g>
</svg>
